<?xml version="1.0" encoding="UTF-8" standalone="no"?><!DOCTYPE svg PUBLIC "-//W3C//DTD SVG 1.1//EN" "http://www.w3.org/Graphics/SVG/1.1/DTD/svg11.dtd"><svg width="100%" height="100%" viewBox="0 0 30 30" version="1.1" xmlns="http://www.w3.org/2000/svg" xmlns:xlink="http://www.w3.org/1999/xlink" xml:space="preserve" xmlns:serif="http://www.serif.com/" style="fill-rule:evenodd;clip-rule:evenodd;stroke-linejoin:round;stroke-miterlimit:2;"><g><path d="M15.228,0c2.925,0.225 11.025,3.75 13.425,8.775l-0.3,-0.675c-0.375,-0.6 -0.825,-1.35 -1.275,-1.95l-0.3,-0.375c-2.775,-3.525 -8.775,-5.775 -11.775,-5.775l0.225,0" style="fill-rule:nonzero;"/><path d="M15.003,30c0.6,0 1.35,-0.075 1.875,-0.15c-0.3,0.075 -0.975,0.15 -1.875,0.15" style="fill-rule:nonzero;"/><path d="M14.928,0c-0.075,0.525 1.125,1.5 4.725,4.275c6.6,5.1 12.675,10.65 8.325,18.225l0.375,-0.675c0.3,-0.6 0.675,-1.5 0.9,-2.175c0.15,-0.6 0.375,-1.35 0.525,-1.95c0.525,-3.15 -0.225,-5.85 -2.625,-8.775c-3.6,-4.125 -12.075,-8.925 -12.15,-8.925l-0.075,0" style="fill-rule:nonzero;"/><path d="M14.403,0c-3.3,0.3 -5.625,2.1 1.875,9.15c5.175,4.875 9.15,9 8.85,13.5c-0.15,3.525 -4.275,7.35 -10.125,7.35c4.05,-0.075 7.65,-1.65 9.975,-4.425c5.25,-6.975 -2.175,-13.575 -7.5,-18.375c-5.475,-4.8 -6.225,-7.2 -2.475,-7.2l-0.6,0" style="fill-rule:nonzero;"/><path d="M14.778,0l-0.825,0c-5.775,0.525 -8.1,3.75 -8.175,5.625c-0.075,2.325 0.45,4.875 7.5,11.925c12.075,12.075 2.175,12.45 1.725,12.45c1.05,0 3.675,-0.3 5.1,-2.55c2.325,-4.125 -1.65,-8.25 -5.175,-11.925c-4.65,-4.8 -7.425,-7.65 -7.425,-10.875c-0,-2.25 2.55,-4.65 7.5,-4.65l-0.225,0" style="fill:#de1d3f;fill-rule:nonzero;"/><path d="M4.428,4.425c-0.525,0.525 -1.05,1.125 -1.5,1.725c-0.075,0.075 -0.15,0.15 -0.225,0.225c-4.425,6.975 1.725,12.45 7.575,17.775c4.65,4.2 4.65,5.7 4.65,5.85c0.225,-0.075 0.675,-0.15 0.6,-1.2c-0.375,-2.025 -2.55,-4.5 -4.725,-6.525c-7.125,-7.125 -12.075,-12.975 -5.25,-18.975c-0.375,0.375 -0.75,0.75 -1.125,1.125" style="fill-rule:nonzero;"/><path d="M0.003,15c-0,0.825 0.075,1.65 0.225,2.4c0.075,0.3 0.075,0.6 0.15,0.9c1.95,6.825 11.925,11.7 14.625,11.7c-0.375,0 -0.675,-0.075 -1.35,-0.3c-0.15,-0.075 -13.875,-7.125 -13.65,-15.15l-0,0.45" style="fill-rule:nonzero;"/><path d="M4.428,25.575c0.525,0.525 1.125,1.05 1.725,1.5c0.15,0.15 0.375,0.225 0.525,0.375c3.375,2.175 6.675,2.55 8.325,2.55c-4.95,-0.075 -9.3,-3 -11.1,-4.875c0.15,0.15 0.3,0.3 0.525,0.45" style="fill-rule:nonzero;"/><g><path d="M28.728,9c-0.45,-1.125 -1.05,-2.1 -1.8,-3.075l-0.15,-0.225l0.3,0.375c0.375,0.6 0.9,1.35 1.2,1.95l0.3,0.675l0.15,0.3" style="fill-rule:nonzero;"/><g><path d="M15.003,30c0.825,0 1.575,-0.075 2.325,-0.15c-0.15,-0 -0.3,0.075 -0.45,0.075c-0.525,-0 -1.275,0.075 -1.875,0.075" style="fill-rule:nonzero;"/><path d="M29.253,19.725c-0.225,0.675 -0.6,1.5 -0.9,2.175l-0.375,0.6c-0.075,0.15 -0.225,0.375 -0.3,0.525c0.9,-1.425 1.575,-3.075 1.95,-4.8c-0,-0.15 0.075,-0.3 0.075,-0.375c-0.075,0.525 -0.3,1.35 -0.45,1.875" style="fill-rule:nonzero;"/></g></g><path d="M14.778,0c-1.275,0 -2.175,0.225 -2.775,0.375l-0.3,0.075l-0.45,0.075c-3.45,1.05 -6.675,3.3 -8.55,5.85c0.075,-0.075 0.075,-0.15 0.15,-0.225c0.45,-0.6 0.975,-1.2 1.5,-1.725c0.375,-0.375 0.75,-0.75 1.2,-1.05c2.85,-2.25 5.625,-2.85 6.6,-3.075c0.675,-0.15 1.5,-0.3 2.85,-0.3l-0.225,0" style="fill-rule:nonzero;"/><path d="M14.328,0.075c-1.125,0.15 -2.1,0.75 -2.85,1.275l-0.225,0.075l-0.3,0.225c-0.525,0.3 -12.3,8.775 -10.575,16.65c-0.075,-0.3 -0.15,-0.6 -0.15,-0.9c-0.15,-0.75 -0.225,-1.575 -0.225,-2.4l-0,-0.45c0.675,-7.725 10.5,-13.2 10.95,-13.425c0.45,-0.225 0.9,-0.45 1.575,-0.675c1.2,-0.45 1.95,-0.45 2.475,-0.45c-0.225,0 -0.45,0 -0.675,0.075" style="fill-rule:nonzero;"/><path d="M14.928,0.75c-0.075,0.9 -0.225,1.2 -0.525,2.025l-0.075,0.15l-0.075,0.3c-2.7,6.15 -8.55,10.275 -10.65,16.8c-0.6,2.025 -0.6,5.025 3.075,7.5c-0.15,-0.15 -0.375,-0.225 -0.525,-0.375c-0.6,-0.45 -1.2,-0.975 -1.725,-1.5c-0.15,-0.15 -0.3,-0.3 -0.45,-0.525c-2.175,-2.475 -2.475,-4.875 -1.125,-8.325c2.25,-5.55 7.05,-9.3 10.275,-14.25c1.5,-2.475 1.5,-2.475 1.95,-2.55c-0.15,0.15 -0.15,0.15 -0.15,0.75" style="fill-rule:nonzero;"/></g><path d="M24.373,22.754c1.006,-1.373 1.607,-3.06 1.607,-4.889c0,-4.578 -3.724,-8.302 -8.302,-8.302c-4.578,-0 -8.303,3.724 -8.303,8.302c-0,4.578 3.725,8.303 8.303,8.303c1.828,-0 3.516,-0.602 4.889,-1.607l5.439,5.439l1.806,-1.806c0,-0 -5.439,-5.44 -5.439,-5.44Zm-6.695,0.859c-3.17,0 -5.748,-2.578 -5.748,-5.748c-0,-3.169 2.578,-5.748 5.748,-5.748c3.169,0 5.748,2.579 5.748,5.748c-0,3.17 -2.579,5.748 -5.748,5.748Z" style="fill:#1a4694;fill-rule:nonzero;"/></svg>